<svg xmlns="http://www.w3.org/2000/svg" width="1000" height="400"><defs><style type="text/css"><![CDATA[  
            @font-face {
                font-family: Merriweather;
                src: './fonts/Merriweather-Bold.ttf'';
            },

            @font-face {
                font-family: Source Sans Pro;
                src: './fonts/SourceSansPro-Regular.ttf'';
            }
             ]]></style></defs><rect width="100%" height="100%" style="fill: rgb(28, 35, 51);;"></rect><text transform="translate(150,0)" fill="#85ceff" font-size="24px" x="50" y="50">Node and D3 Bar chart</text><g transform="translate(100, 100)"></g><g transform="translate(50, 360)" fill="none" font-size="10" font-family="sans-serif" text-anchor="middle"><path class="domain" stroke="currentColor" d="M0.5,6V0.5H990.5V6"></path><g class="tick" opacity="1" transform="translate(135,0)"><line stroke="currentColor" y2="6"></line><text fill="currentColor" y="9" dy="0.71em">2020</text></g><g class="tick" opacity="1" transform="translate(315,0)"><line stroke="currentColor" y2="6"></line><text fill="currentColor" y="9" dy="0.71em">2019</text></g><g class="tick" opacity="1" transform="translate(495,0)"><line stroke="currentColor" y2="6"></line><text fill="currentColor" y="9" dy="0.71em">2018</text></g><g class="tick" opacity="1" transform="translate(675,0)"><line stroke="currentColor" y2="6"></line><text fill="currentColor" y="9" dy="0.71em">2017</text></g><g class="tick" opacity="1" transform="translate(855,0)"><line stroke="currentColor" y2="6"></line><text fill="currentColor" y="9" dy="0.71em">2016</text></g><text y="-20" x="490" text-anchor="end" stroke="black" fill="#85ceff" font-size="20px">Year</text></g><g transform="translate(50,0)" fill="none" font-size="10" font-family="sans-serif" text-anchor="end"><path class="domain" stroke="currentColor" d="M-6,360.5H0.5V0.5H-6"></path><g class="tick" opacity="1" transform="translate(0,360.5)"><line stroke="currentColor" x2="-6"></line><text fill="currentColor" x="-9" dy="0.32em">$0</text></g><g class="tick" opacity="1" transform="translate(0,291.2692307692308)"><line stroke="currentColor" x2="-6"></line><text fill="currentColor" x="-9" dy="0.32em">$50</text></g><g class="tick" opacity="1" transform="translate(0,222.03846153846155)"><line stroke="currentColor" x2="-6"></line><text fill="currentColor" x="-9" dy="0.32em">$100</text></g><g class="tick" opacity="1" transform="translate(0,152.80769230769232)"><line stroke="currentColor" x2="-6"></line><text fill="currentColor" x="-9" dy="0.32em">$150</text></g><g class="tick" opacity="1" transform="translate(0,83.57692307692307)"><line stroke="currentColor" x2="-6"></line><text fill="currentColor" x="-9" dy="0.32em">$200</text></g><g class="tick" opacity="1" transform="translate(0,14.346153846153836)"><line stroke="currentColor" x2="-6"></line><text fill="currentColor" x="-9" dy="0.32em">$250</text></g><text transform="rotate(-90)" y="150" x="-150" dy="-9.1em" text-anchor="end" stroke="black" font-size="20px" fill="#85ceff">Cost</text></g><rect transform="translate(50,0)" class="bar" x="90" y="221.53846153846155" width="90" height="138.46153846153845" style="fill: orange;"></rect><rect transform="translate(50,0)" class="bar" x="270" y="83.07692307692307" width="90" height="276.9230769230769" style="fill: orange;"></rect><rect transform="translate(50,0)" class="bar" x="450" y="318.46153846153845" width="90" height="41.53846153846155" style="fill: orange;"></rect><rect transform="translate(50,0)" class="bar" x="630" y="290.7692307692308" width="90" height="69.23076923076923" style="fill: orange;"></rect><rect transform="translate(50,0)" class="bar" x="810" y="249.23076923076923" width="90" height="110.76923076923077" style="fill: orange;"></rect></svg>